<svg xmlns="http://www.w3.org/2000/svg" width="1200" height="680" viewBox="0 0 1200 680" role="img" aria-label="公式 02 · 商店概率与可达性折现">
  <rect width="1200" height="680" fill="#ffffff"/>
  <style>text{font-family:Inter,-apple-system,BlinkMacSystemFont,"Segoe UI","PingFang SC","Microsoft YaHei",Arial,sans-serif;letter-spacing:0}</style>
  <text x="52" y="58" font-size="30" fill="#172033" font-weight="750" text-anchor="start" >公式 02 · 商店概率与可达性折现</text>
  <text x="52" y="88" font-size="16" fill="#667085" font-weight="400" text-anchor="start" >低等级自然压低高费终局价值，高等级恢复核心棋子与追三成本</text>
  <line x1="52" y1="108" x2="1148" y2="108" stroke="#e4e7ec" stroke-width="1" />
  <text x="52" y="148" font-size="20" fill="#172033" font-weight="700" text-anchor="start" >等级 × 费用的单格商店占比</text><text x="323" y="162" font-size="16" fill="#667085" font-weight="650" text-anchor="middle" >1费</text><text x="449" y="162" font-size="16" fill="#667085" font-weight="650" text-anchor="middle" >2费</text><text x="575" y="162" font-size="16" fill="#667085" font-weight="650" text-anchor="middle" >3费</text><text x="701" y="162" font-size="16" fill="#667085" font-weight="650" text-anchor="middle" >4费</text><text x="827" y="162" font-size="16" fill="#667085" font-weight="650" text-anchor="middle" >5费</text><text x="232" y="206" font-size="16" fill="#172033" font-weight="650" text-anchor="end" >1级</text><rect x="260" y="178" width="119" height="36" rx="5" fill="#1d4ed8" stroke="#fff" stroke-width="1"/><text x="319.5" y="204" font-size="16" fill="#fff" font-weight="700" text-anchor="middle" >100%</text><rect x="386" y="178" width="119" height="36" rx="5" fill="#f2f4f7" stroke="#fff" stroke-width="1"/><text x="445.5" y="204" font-size="16" fill="#172033" font-weight="700" text-anchor="middle" >0%</text><rect x="512" y="178" width="119" height="36" rx="5" fill="#f2f4f7" stroke="#fff" stroke-width="1"/><text x="571.5" y="204" font-size="16" fill="#172033" font-weight="700" text-anchor="middle" >0%</text><rect x="638" y="178" width="119" height="36" rx="5" fill="#f2f4f7" stroke="#fff" stroke-width="1"/><text x="697.5" y="204" font-size="16" fill="#172033" font-weight="700" text-anchor="middle" >0%</text><rect x="764" y="178" width="119" height="36" rx="5" fill="#f2f4f7" stroke="#fff" stroke-width="1"/><text x="823.5" y="204" font-size="16" fill="#172033" font-weight="700" text-anchor="middle" >0%</text><text x="232" y="249" font-size="16" fill="#172033" font-weight="650" text-anchor="end" >2级</text><rect x="260" y="221" width="119" height="36" rx="5" fill="#1d4ed8" stroke="#fff" stroke-width="1"/><text x="319.5" y="247" font-size="16" fill="#fff" font-weight="700" text-anchor="middle" >100%</text><rect x="386" y="221" width="119" height="36" rx="5" fill="#f2f4f7" stroke="#fff" stroke-width="1"/><text x="445.5" y="247" font-size="16" fill="#172033" font-weight="700" text-anchor="middle" >0%</text><rect x="512" y="221" width="119" height="36" rx="5" fill="#f2f4f7" stroke="#fff" stroke-width="1"/><text x="571.5" y="247" font-size="16" fill="#172033" font-weight="700" text-anchor="middle" >0%</text><rect x="638" y="221" width="119" height="36" rx="5" fill="#f2f4f7" stroke="#fff" stroke-width="1"/><text x="697.5" y="247" font-size="16" fill="#172033" font-weight="700" text-anchor="middle" >0%</text><rect x="764" y="221" width="119" height="36" rx="5" fill="#f2f4f7" stroke="#fff" stroke-width="1"/><text x="823.5" y="247" font-size="16" fill="#172033" font-weight="700" text-anchor="middle" >0%</text><text x="232" y="292" font-size="16" fill="#172033" font-weight="650" text-anchor="end" >3级</text><rect x="260" y="264" width="119" height="36" rx="5" fill="#3b82f6" stroke="#fff" stroke-width="1"/><text x="319.5" y="290" font-size="16" fill="#fff" font-weight="700" text-anchor="middle" >75%</text><rect x="386" y="264" width="119" height="36" rx="5" fill="#93c5fd" stroke="#fff" stroke-width="1"/><text x="445.5" y="290" font-size="16" fill="#172033" font-weight="700" text-anchor="middle" >25%</text><rect x="512" y="264" width="119" height="36" rx="5" fill="#f2f4f7" stroke="#fff" stroke-width="1"/><text x="571.5" y="290" font-size="16" fill="#172033" font-weight="700" text-anchor="middle" >0%</text><rect x="638" y="264" width="119" height="36" rx="5" fill="#f2f4f7" stroke="#fff" stroke-width="1"/><text x="697.5" y="290" font-size="16" fill="#172033" font-weight="700" text-anchor="middle" >0%</text><rect x="764" y="264" width="119" height="36" rx="5" fill="#f2f4f7" stroke="#fff" stroke-width="1"/><text x="823.5" y="290" font-size="16" fill="#172033" font-weight="700" text-anchor="middle" >0%</text><text x="232" y="335" font-size="16" fill="#172033" font-weight="650" text-anchor="end" >4级</text><rect x="260" y="307" width="119" height="36" rx="5" fill="#3b82f6" stroke="#fff" stroke-width="1"/><text x="319.5" y="333" font-size="16" fill="#fff" font-weight="700" text-anchor="middle" >55%</text><rect x="386" y="307" width="119" height="36" rx="5" fill="#93c5fd" stroke="#fff" stroke-width="1"/><text x="445.5" y="333" font-size="16" fill="#172033" font-weight="700" text-anchor="middle" >30%</text><rect x="512" y="307" width="119" height="36" rx="5" fill="#bfdbfe" stroke="#fff" stroke-width="1"/><text x="571.5" y="333" font-size="16" fill="#172033" font-weight="700" text-anchor="middle" >15%</text><rect x="638" y="307" width="119" height="36" rx="5" fill="#f2f4f7" stroke="#fff" stroke-width="1"/><text x="697.5" y="333" font-size="16" fill="#172033" font-weight="700" text-anchor="middle" >0%</text><rect x="764" y="307" width="119" height="36" rx="5" fill="#f2f4f7" stroke="#fff" stroke-width="1"/><text x="823.5" y="333" font-size="16" fill="#172033" font-weight="700" text-anchor="middle" >0%</text><text x="232" y="378" font-size="16" fill="#172033" font-weight="650" text-anchor="end" >5级</text><rect x="260" y="350" width="119" height="36" rx="5" fill="#60a5fa" stroke="#fff" stroke-width="1"/><text x="319.5" y="376" font-size="16" fill="#172033" font-weight="700" text-anchor="middle" >45%</text><rect x="386" y="350" width="119" height="36" rx="5" fill="#60a5fa" stroke="#fff" stroke-width="1"/><text x="445.5" y="376" font-size="16" fill="#172033" font-weight="700" text-anchor="middle" >33%</text><rect x="512" y="350" width="119" height="36" rx="5" fill="#93c5fd" stroke="#fff" stroke-width="1"/><text x="571.5" y="376" font-size="16" fill="#172033" font-weight="700" text-anchor="middle" >20%</text><rect x="638" y="350" width="119" height="36" rx="5" fill="#dbeafe" stroke="#fff" stroke-width="1"/><text x="697.5" y="376" font-size="16" fill="#172033" font-weight="700" text-anchor="middle" >2%</text><rect x="764" y="350" width="119" height="36" rx="5" fill="#f2f4f7" stroke="#fff" stroke-width="1"/><text x="823.5" y="376" font-size="16" fill="#172033" font-weight="700" text-anchor="middle" >0%</text><text x="232" y="421" font-size="16" fill="#172033" font-weight="650" text-anchor="end" >6级</text><rect x="260" y="393" width="119" height="36" rx="5" fill="#93c5fd" stroke="#fff" stroke-width="1"/><text x="319.5" y="419" font-size="16" fill="#172033" font-weight="700" text-anchor="middle" >25%</text><rect x="386" y="393" width="119" height="36" rx="5" fill="#60a5fa" stroke="#fff" stroke-width="1"/><text x="445.5" y="419" font-size="16" fill="#172033" font-weight="700" text-anchor="middle" >40%</text><rect x="512" y="393" width="119" height="36" rx="5" fill="#93c5fd" stroke="#fff" stroke-width="1"/><text x="571.5" y="419" font-size="16" fill="#172033" font-weight="700" text-anchor="middle" >30%</text><rect x="638" y="393" width="119" height="36" rx="5" fill="#dbeafe" stroke="#fff" stroke-width="1"/><text x="697.5" y="419" font-size="16" fill="#172033" font-weight="700" text-anchor="middle" >5%</text><rect x="764" y="393" width="119" height="36" rx="5" fill="#f2f4f7" stroke="#fff" stroke-width="1"/><text x="823.5" y="419" font-size="16" fill="#172033" font-weight="700" text-anchor="middle" >0%</text><text x="232" y="464" font-size="16" fill="#172033" font-weight="650" text-anchor="end" >7级</text><rect x="260" y="436" width="119" height="36" rx="5" fill="#93c5fd" stroke="#fff" stroke-width="1"/><text x="319.5" y="462" font-size="16" fill="#172033" font-weight="700" text-anchor="middle" >19%</text><rect x="386" y="436" width="119" height="36" rx="5" fill="#93c5fd" stroke="#fff" stroke-width="1"/><text x="445.5" y="462" font-size="16" fill="#172033" font-weight="700" text-anchor="middle" >30%</text><rect x="512" y="436" width="119" height="36" rx="5" fill="#60a5fa" stroke="#fff" stroke-width="1"/><text x="571.5" y="462" font-size="16" fill="#172033" font-weight="700" text-anchor="middle" >35%</text><rect x="638" y="436" width="119" height="36" rx="5" fill="#bfdbfe" stroke="#fff" stroke-width="1"/><text x="697.5" y="462" font-size="16" fill="#172033" font-weight="700" text-anchor="middle" >15%</text><rect x="764" y="436" width="119" height="36" rx="5" fill="#dbeafe" stroke="#fff" stroke-width="1"/><text x="823.5" y="462" font-size="16" fill="#172033" font-weight="700" text-anchor="middle" >1%</text><text x="232" y="507" font-size="16" fill="#172033" font-weight="650" text-anchor="end" >8级</text><rect x="260" y="479" width="119" height="36" rx="5" fill="#93c5fd" stroke="#fff" stroke-width="1"/><text x="319.5" y="505" font-size="16" fill="#172033" font-weight="700" text-anchor="middle" >18%</text><rect x="386" y="479" width="119" height="36" rx="5" fill="#93c5fd" stroke="#fff" stroke-width="1"/><text x="445.5" y="505" font-size="16" fill="#172033" font-weight="700" text-anchor="middle" >25%</text><rect x="512" y="479" width="119" height="36" rx="5" fill="#60a5fa" stroke="#fff" stroke-width="1"/><text x="571.5" y="505" font-size="16" fill="#172033" font-weight="700" text-anchor="middle" >32%</text><rect x="638" y="479" width="119" height="36" rx="5" fill="#93c5fd" stroke="#fff" stroke-width="1"/><text x="697.5" y="505" font-size="16" fill="#172033" font-weight="700" text-anchor="middle" >22%</text><rect x="764" y="479" width="119" height="36" rx="5" fill="#dbeafe" stroke="#fff" stroke-width="1"/><text x="823.5" y="505" font-size="16" fill="#172033" font-weight="700" text-anchor="middle" >3%</text><text x="232" y="550" font-size="16" fill="#172033" font-weight="650" text-anchor="end" >9级</text><rect x="260" y="522" width="119" height="36" rx="5" fill="#bfdbfe" stroke="#fff" stroke-width="1"/><text x="319.5" y="548" font-size="16" fill="#172033" font-weight="700" text-anchor="middle" >10%</text><rect x="386" y="522" width="119" height="36" rx="5" fill="#93c5fd" stroke="#fff" stroke-width="1"/><text x="445.5" y="548" font-size="16" fill="#172033" font-weight="700" text-anchor="middle" >20%</text><rect x="512" y="522" width="119" height="36" rx="5" fill="#93c5fd" stroke="#fff" stroke-width="1"/><text x="571.5" y="548" font-size="16" fill="#172033" font-weight="700" text-anchor="middle" >25%</text><rect x="638" y="522" width="119" height="36" rx="5" fill="#60a5fa" stroke="#fff" stroke-width="1"/><text x="697.5" y="548" font-size="16" fill="#172033" font-weight="700" text-anchor="middle" >35%</text><rect x="764" y="522" width="119" height="36" rx="5" fill="#bfdbfe" stroke="#fff" stroke-width="1"/><text x="823.5" y="548" font-size="16" fill="#172033" font-weight="700" text-anchor="middle" >10%</text><rect x="52" y="178" width="160" height="382" rx="9" fill="#f8fafc" stroke="#e4e7ec" stroke-width="1"/><text x="72" y="215" font-size="19" fill="#172033" font-weight="700" text-anchor="start" >概率折现</text><text x="72" y="260" font-size="16" fill="#667085" font-weight="500" text-anchor="start"><tspan x="72" dy="0">p(slot) =</tspan><tspan x="72" dy="24.8">商店费用概率</tspan><tspan x="72" dy="24.8">÷ 同费用棋子数</tspan><tspan x="72" dy="24.8">× 剩余牌池系数</tspan><tspan x="72" dy="24.8"></tspan><tspan x="72" dy="24.8">E[金币] ≈</tspan><tspan x="72" dy="24.8">目标张数 × 2</tspan><tspan x="72" dy="24.8">÷ (5 × p(slot))</tspan></text><rect x="260" y="586" width="623" height="36" rx="6" fill="#fff7ed" stroke="#fed7aa" stroke-width="1"/><text x="572" y="610" font-size="15" fill="#d97706" font-weight="700" text-anchor="middle" >0% 费用不伪造 999 金成本，统一进入“后期目标”</text><text x="925" y="202" font-size="18" fill="#172033" font-weight="700" text-anchor="start" >牌池份数</text><rect x="925" y="232" width="68" height="32" rx="16" fill="#2563eb" stroke="none" stroke-width="1"/><text x="959" y="254" font-size="15" fill="#fff" font-weight="650" text-anchor="middle" >1费</text><text x="1008" y="254" font-size="16" fill="#172033" font-weight="650" text-anchor="start" >每张 29 份</text><rect x="925" y="290" width="68" height="32" rx="16" fill="#0891b2" stroke="none" stroke-width="1"/><text x="959" y="312" font-size="15" fill="#fff" font-weight="650" text-anchor="middle" >2费</text><text x="1008" y="312" font-size="16" fill="#172033" font-weight="650" text-anchor="start" >每张 22 份</text><rect x="925" y="348" width="68" height="32" rx="16" fill="#059669" stroke="none" stroke-width="1"/><text x="959" y="370" font-size="15" fill="#fff" font-weight="650" text-anchor="middle" >3费</text><text x="1008" y="370" font-size="16" fill="#172033" font-weight="650" text-anchor="start" >每张 18 份</text><rect x="925" y="406" width="68" height="32" rx="16" fill="#d97706" stroke="none" stroke-width="1"/><text x="959" y="428" font-size="15" fill="#fff" font-weight="650" text-anchor="middle" >4费</text><text x="1008" y="428" font-size="16" fill="#172033" font-weight="650" text-anchor="start" >每张 12 份</text><rect x="925" y="464" width="68" height="32" rx="16" fill="#7c3aed" stroke="none" stroke-width="1"/><text x="959" y="486" font-size="15" fill="#fff" font-weight="650" text-anchor="middle" >5费</text><text x="1008" y="486" font-size="16" fill="#172033" font-weight="650" text-anchor="start" >每张 10 份</text>
  <line x1="52" y1="642" x2="1148" y2="642" stroke="#e4e7ec" stroke-width="1" />
  <text x="52" y="666" font-size="13" fill="#98a2b3" font-weight="400" text-anchor="start" >数据：public/odds-data.js；概率来源注释见该文件，牌池份数按 S8 同口径</text>
  <text x="1148" y="666" font-size="13" fill="#98a2b3" font-weight="600" text-anchor="end" >JCC S18 Research Lab</text>
</svg>