<svg xmlns="http://www.w3.org/2000/svg" width="1200" height="680" viewBox="0 0 1200 680" role="img" aria-label="公式 03 · 条件符文算子">
  <rect width="1200" height="680" fill="#ffffff"/>
  <style>text{font-family:Inter,-apple-system,BlinkMacSystemFont,"Segoe UI","PingFang SC","Microsoft YaHei",Arial,sans-serif;letter-spacing:0}</style>
  <text x="52" y="58" font-size="30" fill="#172033" font-weight="750" text-anchor="start" >公式 03 · 条件符文算子</text>
  <text x="52" y="88" font-size="16" fill="#667085" font-weight="400" text-anchor="start" >以每类当前最强条件路线为例，展示原始抬升如何被证据等级折扣后进入比赛模式</text>
  <line x1="52" y1="108" x2="1148" y2="108" stroke="#e4e7ec" stroke-width="1" />
  <rect x="52" y="134" width="1096" height="68" rx="9" fill="#faf5ff" stroke="#ddd6fe" stroke-width="1"/><text x="600" y="164" font-size="23" fill="#7c3aed" font-weight="750" text-anchor="middle" >b = qₑ × min(12, 0.5 × Δcondition)</text><text x="600" y="189" font-size="15" fill="#667085" font-weight="500" text-anchor="middle" >qₑ = { L2.5: 1.00, L2: 0.65, L1.5: 0.35 }，单项封顶12分、合计封顶18分</text><rect x="52" y="238" width="92" height="32" rx="16" fill="#7c3aed" stroke="none" stroke-width="1"/><text x="98" y="260" font-size="15" fill="#fff" font-weight="650" text-anchor="middle" >英雄专属</text><text x="160" y="258" font-size="16" fill="#172033" font-weight="650" text-anchor="start" >完美的日炎耀斑蕾欧娜机制路线</text><text x="160" y="282" font-size="14" fill="#667085" font-weight="450" text-anchor="start" >门槛：完美的日炎耀斑 / 蕾欧娜</text><rect x="506" y="240" width="380" height="24" rx="5" fill="#eef2f6" stroke="none" stroke-width="1"/><rect x="506" y="240" width="380" height="24" rx="5" fill="#ddd6fe" stroke="none" stroke-width="1"/><text x="900" y="258" font-size="14" fill="#667085" font-weight="600" text-anchor="start" >专属机制硬门槛</text><rect x="506" y="274" width="380" height="24" rx="5" fill="#eef2f6" stroke="none" stroke-width="1"/><rect x="506" y="274" width="380" height="24" rx="5" fill="#7c3aed" stroke="none" stroke-width="1"/><text x="900" y="292" font-size="14" fill="#7c3aed" font-weight="700" text-anchor="start" >机制开关，非软加分</text><rect x="1040" y="253" width="74" height="32" rx="16" fill="#f2f4f7" stroke="none" stroke-width="1"/><text x="1077" y="275" font-size="15" fill="#172033" font-weight="650" text-anchor="middle" >L2.5</text><rect x="52" y="326" width="92" height="32" rx="16" fill="#dc2626" stroke="none" stroke-width="1"/><text x="98" y="348" font-size="15" fill="#fff" font-weight="650" text-anchor="middle" >战力</text><text x="160" y="346" font-size="16" fill="#172033" font-weight="650" text-anchor="start" >95秘卫枪手3秘书卫士2福牛守护者</text><text x="160" y="370" font-size="14" fill="#667085" font-weight="450" text-anchor="start" >门槛：飞升</text><rect x="506" y="328" width="380" height="24" rx="5" fill="#eef2f6" stroke="none" stroke-width="1"/><rect x="506" y="328" width="42.676923076923075" height="24" rx="5" fill="#cbd5e1" stroke="none" stroke-width="1"/><text x="900" y="346" font-size="14" fill="#667085" font-weight="600" text-anchor="start" >原始抬升 7.3</text><rect x="506" y="362" width="380" height="24" rx="5" fill="#eef2f6" stroke="none" stroke-width="1"/><rect x="506" y="362" width="115.58333333333333" height="24" rx="5" fill="#dc2626" stroke="none" stroke-width="1"/><text x="900" y="380" font-size="14" fill="#dc2626" font-weight="700" text-anchor="start" >入场算子 3.6 分</text><rect x="1040" y="341" width="74" height="32" rx="16" fill="#f2f4f7" stroke="none" stroke-width="1"/><text x="1077" y="363" font-size="15" fill="#172033" font-weight="650" text-anchor="middle" >L2.5</text><rect x="52" y="414" width="92" height="32" rx="16" fill="#059669" stroke="none" stroke-width="1"/><text x="98" y="436" font-size="15" fill="#fff" font-weight="650" text-anchor="middle" >经济</text><text x="160" y="434" font-size="16" fill="#172033" font-weight="650" text-anchor="start" >95秘卫枪手3秘书卫士2福牛守护者</text><text x="160" y="458" font-size="14" fill="#667085" font-weight="450" text-anchor="start" >门槛：高端购物</text><rect x="506" y="416" width="380" height="24" rx="5" fill="#eef2f6" stroke="none" stroke-width="1"/><rect x="506" y="416" width="49.69230769230769" height="24" rx="5" fill="#cbd5e1" stroke="none" stroke-width="1"/><text x="900" y="434" font-size="14" fill="#667085" font-weight="600" text-anchor="start" >原始抬升 8.5</text><rect x="506" y="450" width="380" height="24" rx="5" fill="#eef2f6" stroke="none" stroke-width="1"/><rect x="506" y="450" width="134.58333333333334" height="24" rx="5" fill="#059669" stroke="none" stroke-width="1"/><text x="900" y="468" font-size="14" fill="#059669" font-weight="700" text-anchor="start" >入场算子 4.3 分</text><rect x="1040" y="429" width="74" height="32" rx="16" fill="#f2f4f7" stroke="none" stroke-width="1"/><text x="1077" y="451" font-size="15" fill="#172033" font-weight="650" text-anchor="middle" >L2.5</text><rect x="52" y="502" width="92" height="32" rx="16" fill="#2563eb" stroke="none" stroke-width="1"/><text x="98" y="524" font-size="15" fill="#fff" font-weight="650" text-anchor="middle" >装备</text><text x="160" y="522" font-size="16" fill="#172033" font-weight="650" text-anchor="start" >福牛混沌九五4福牛守护者3混沌战士2吉…</text><text x="160" y="546" font-size="14" fill="#667085" font-weight="450" text-anchor="start" >门槛：便携锻炉</text><rect x="506" y="504" width="380" height="24" rx="5" fill="#eef2f6" stroke="none" stroke-width="1"/><rect x="506" y="504" width="45.6" height="24" rx="5" fill="#cbd5e1" stroke="none" stroke-width="1"/><text x="900" y="522" font-size="14" fill="#667085" font-weight="600" text-anchor="start" >原始抬升 7.8</text><rect x="506" y="538" width="380" height="24" rx="5" fill="#eef2f6" stroke="none" stroke-width="1"/><rect x="506" y="538" width="123.5" height="24" rx="5" fill="#2563eb" stroke="none" stroke-width="1"/><text x="900" y="556" font-size="14" fill="#2563eb" font-weight="700" text-anchor="start" >入场算子 3.9 分</text><rect x="1040" y="517" width="74" height="32" rx="16" fill="#f2f4f7" stroke="none" stroke-width="1"/><text x="1077" y="539" font-size="15" fill="#172033" font-weight="650" text-anchor="middle" >L2.5</text><rect x="52" y="598" width="1096" height="30" rx="5" fill="#fef2f2" stroke="#fecaca" stroke-width="1"/><text x="600" y="619" font-size="15" fill="#dc2626" font-weight="650" text-anchor="middle" >符文不是固定加分：先经过条件抬升、证据等级、成熟度与类别算子的四层约束</text>
  <line x1="52" y1="642" x2="1148" y2="642" stroke="#e4e7ec" stroke-width="1" />
  <text x="52" y="666" font-size="13" fill="#98a2b3" font-weight="400" text-anchor="start" >数据：route_certification_results.json，5,000 次/路线蒙特卡洛认证</text>
  <text x="1148" y="666" font-size="13" fill="#98a2b3" font-weight="600" text-anchor="end" >JCC S18 Research Lab</text>
</svg>