<svg xmlns="http://www.w3.org/2000/svg" width="1200" height="680" viewBox="0 0 1200 680" role="img" aria-label="阵容推导 02 · 无限技能金克丝">
  <rect width="1200" height="680" fill="#ffffff"/>
  <style>text{font-family:Inter,-apple-system,BlinkMacSystemFont,"Segoe UI","PingFang SC","Microsoft YaHei",Arial,sans-serif;letter-spacing:0}</style>
  <text x="52" y="58" font-size="30" fill="#172033" font-weight="750" text-anchor="start" >阵容推导 02 · 无限技能金克丝</text>
  <text x="52" y="88" font-size="16" fill="#667085" font-weight="400" text-anchor="start" >不是照搬社媒阵容：分别验算成长曲线、导弹阈值与三种终局壳体</text>
  <line x1="52" y1="108" x2="1148" y2="108" stroke="#e4e7ec" stroke-width="1" />
  <text x="78" y="150" font-size="19" fill="#172033" font-weight="700" text-anchor="start" >姐妹强化：参与击杀 → 法强叠层 → 炮弹数阶跃</text><line x1="78" y1="520" x2="728" y2="520" stroke="#e4e7ec" stroke-width="1" /><text x="64" y="525" font-size="13" fill="#667085" font-weight="500" text-anchor="end" >0</text><line x1="78" y1="440.47058823529414" x2="728" y2="440.47058823529414" stroke="#e4e7ec" stroke-width="1" /><text x="64" y="445.47058823529414" font-size="13" fill="#667085" font-weight="500" text-anchor="end" >200</text><line x1="78" y1="360.94117647058823" x2="728" y2="360.94117647058823" stroke="#e4e7ec" stroke-width="1" /><text x="64" y="365.94117647058823" font-size="13" fill="#667085" font-weight="500" text-anchor="end" >400</text><line x1="78" y1="281.4117647058823" x2="728" y2="281.4117647058823" stroke="#e4e7ec" stroke-width="1" /><text x="64" y="286.4117647058823" font-size="13" fill="#667085" font-weight="500" text-anchor="end" >600</text><line x1="78" y1="201.88235294117646" x2="728" y2="201.88235294117646" stroke="#e4e7ec" stroke-width="1" /><text x="64" y="206.88235294117646" font-size="13" fill="#667085" font-weight="500" text-anchor="end" >800</text><line x1="78" y1="182" x2="78" y2="520" stroke="#e4e7ec" stroke-width="1" /><text x="78" y="544" font-size="13" fill="#667085" font-weight="500" text-anchor="middle" >0击杀</text><line x1="240.5" y1="182" x2="240.5" y2="520" stroke="#e4e7ec" stroke-width="1" /><text x="240.5" y="544" font-size="13" fill="#667085" font-weight="500" text-anchor="middle" >10击杀</text><line x1="403" y1="182" x2="403" y2="520" stroke="#e4e7ec" stroke-width="1" /><text x="403" y="544" font-size="13" fill="#667085" font-weight="500" text-anchor="middle" >20击杀</text><line x1="565.5" y1="182" x2="565.5" y2="520" stroke="#e4e7ec" stroke-width="1" /><text x="565.5" y="544" font-size="13" fill="#667085" font-weight="500" text-anchor="middle" >30击杀</text><line x1="728" y1="182" x2="728" y2="520" stroke="#e4e7ec" stroke-width="1" /><text x="728" y="544" font-size="13" fill="#667085" font-weight="500" text-anchor="middle" >40击杀</text><polyline points="78,420.5484705882353 159.25,417.0094117647059 240.5,413.4305882352941 321.75,409.89152941176474 403,331.59482352941177 565.5,317.3590588235294 728,214.1298823529412" fill="none" stroke="#7c3aed" stroke-width="4" stroke-linecap="round" stroke-linejoin="round"/><circle cx="78" cy="420.5484705882353" r="7" fill="#7c3aed" stroke="#fff" stroke-width="3"/><text x="78" y="404.5484705882353" font-size="14" fill="#7c3aed" font-weight="700" text-anchor="middle" >250.1 DPS</text><circle cx="159.25" cy="417.0094117647059" r="7" fill="#7c3aed" stroke="#fff" stroke-width="3"/><circle cx="240.5" cy="413.4305882352941" r="7" fill="#7c3aed" stroke="#fff" stroke-width="3"/><circle cx="321.75" cy="409.89152941176474" r="7" fill="#7c3aed" stroke="#fff" stroke-width="3"/><circle cx="403" cy="331.59482352941177" r="7" fill="#7c3aed" stroke="#fff" stroke-width="3"/><text x="403" y="315.59482352941177" font-size="14" fill="#7c3aed" font-weight="700" text-anchor="middle" >473.8 DPS</text><circle cx="565.5" cy="317.3590588235294" r="7" fill="#7c3aed" stroke="#fff" stroke-width="3"/><circle cx="728" cy="214.1298823529412" r="7" fill="#7c3aed" stroke="#fff" stroke-width="3"/><text x="728" y="198.1298823529412" font-size="14" fill="#7c3aed" font-weight="700" text-anchor="middle" >769.2 DPS</text><line x1="403" y1="182" x2="403" y2="520" stroke="#d97706" stroke-width="2" stroke-dasharray="6 5"/><line x1="728" y1="182" x2="728" y2="520" stroke="#d97706" stroke-width="2" stroke-dasharray="6 5"/><rect x="358" y="532" width="90" height="32" rx="16" fill="#d97706" stroke="none" stroke-width="1"/><text x="403" y="554" font-size="15" fill="#fff" font-weight="650" text-anchor="middle" >2枚炮弹</text><rect x="683" y="532" width="90" height="32" rx="16" fill="#d97706" stroke="none" stroke-width="1"/><text x="728" y="554" font-size="15" fill="#fff" font-weight="650" text-anchor="middle" >3枚炮弹</text><rect x="774" y="142" width="374" height="418" rx="10" fill="#f8fafc" stroke="#e4e7ec" stroke-width="1"/><text x="798" y="180" font-size="20" fill="#172033" font-weight="700" text-anchor="start" >终局壳体反事实</text><text x="798" y="216" font-size="16" fill="#172033" font-weight="650" text-anchor="start" >超英幻灵姐妹</text><rect x="798" y="232" width="270" height="18" rx="5" fill="#e4e7ec" stroke="none" stroke-width="1"/><rect x="798" y="232" width="270" height="18" rx="5" fill="#7c3aed" stroke="none" stroke-width="1"/><text x="1080" y="247" font-size="14" fill="#7c3aed" font-weight="700" text-anchor="start" >1032分</text><text x="798" y="272" font-size="13" fill="#667085" font-weight="500" text-anchor="start" >20层DPS 381.7 · 前排EHP 22,749</text><text x="798" y="318" font-size="16" fill="#172033" font-weight="650" text-anchor="start" >超英秘卫姐妹</text><rect x="798" y="334" width="270" height="18" rx="5" fill="#e4e7ec" stroke="none" stroke-width="1"/><rect x="798" y="334" width="251.42441860465115" height="18" rx="5" fill="#2563eb" stroke="none" stroke-width="1"/><text x="1080" y="349" font-size="14" fill="#2563eb" font-weight="700" text-anchor="start" >961分</text><text x="798" y="374" font-size="13" fill="#667085" font-weight="500" text-anchor="start" >20层DPS 361 · 前排EHP 20,983</text><text x="798" y="420" font-size="16" fill="#172033" font-weight="650" text-anchor="start" >五幻灵姐妹</text><rect x="798" y="436" width="270" height="18" rx="5" fill="#e4e7ec" stroke="none" stroke-width="1"/><rect x="798" y="436" width="226.04651162790697" height="18" rx="5" fill="#059669" stroke="none" stroke-width="1"/><text x="1080" y="451" font-size="14" fill="#059669" font-weight="700" text-anchor="start" >864分</text><text x="798" y="476" font-size="13" fill="#667085" font-weight="500" text-anchor="start" >20层DPS 335.5 · 前排EHP 18,488</text><rect x="774" y="580" width="374" height="42" rx="7" fill="#faf5ff" stroke="#ddd6fe" stroke-width="1"/><text x="961" y="606" font-size="15" fill="#7c3aed" font-weight="700" text-anchor="middle" >最优：超英幻灵姐妹 1032分</text>
  <line x1="52" y1="642" x2="1148" y2="642" stroke="#e4e7ec" stroke-width="1" />
  <text x="52" y="666" font-size="13" fill="#98a2b3" font-weight="400" text-anchor="start" >数据：jinx_sisters_results.json；装备为蓝霸符、朔极之矛、珠光护手</text>
  <text x="1148" y="666" font-size="13" fill="#98a2b3" font-weight="600" text-anchor="end" >JCC S18 Research Lab</text>
</svg>