<svg xmlns="http://www.w3.org/2000/svg" width="1200" height="680" viewBox="0 0 1200 680" role="img" aria-label="阵容推导 01 · 机甲主C交接链">
  <rect width="1200" height="680" fill="#ffffff"/>
  <style>text{font-family:Inter,-apple-system,BlinkMacSystemFont,"Segoe UI","PingFang SC","Microsoft YaHei",Arial,sans-serif;letter-spacing:0}</style>
  <text x="52" y="58" font-size="30" fill="#172033" font-weight="750" text-anchor="start" >阵容推导 01 · 机甲主C交接链</text>
  <text x="52" y="88" font-size="16" fill="#667085" font-weight="400" text-anchor="start" >阶段战力、棋盘重合与装备继承联合求解：贾克斯稳中期，蕾欧娜接终局上限</text>
  <line x1="52" y1="108" x2="1148" y2="108" stroke="#e4e7ec" stroke-width="1" />
  <rect x="52" y="170" width="344" height="348" rx="10" fill="#fff" stroke="#e4e7ec" stroke-width="1.5"/><rect x="52" y="170" width="344" height="8" rx="4" fill="#0891b2" stroke="none" stroke-width="1"/><text x="76" y="214" font-size="21" fill="#172033" font-weight="750" text-anchor="start" >前期 · 贾克斯1星</text><rect x="304" y="190" width="68" height="32" rx="16" fill="#0891b2" stroke="none" stroke-width="1"/><text x="338" y="212" font-size="15" fill="#fff" font-weight="650" text-anchor="middle" >1338分</text><text x="76" y="252" font-size="15" fill="#667085" font-weight="600" text-anchor="start" >核心装备</text><text x="76" y="281" font-size="16" fill="#172033" font-weight="600" text-anchor="start"><tspan x="76" dy="0">泰坦的坚决</tspan><tspan x="76" dy="23.2">水银</tspan><tspan x="76" dy="23.2">鬼索的狂暴之刃</tspan></text><text x="76" y="376" font-size="15" fill="#667085" font-weight="600" text-anchor="start" >棋盘 5 人</text><text x="76" y="405" font-size="15" fill="#172033" font-weight="500" text-anchor="start"><tspan x="76" dy="0">贾克斯 · 德莱文 · 孙悟空 · 布里茨 · </tspan><tspan x="76" dy="22.5">波比</tspan></text><text x="76" y="491" font-size="14" fill="#0891b2" font-weight="650" text-anchor="start" >3战斗机甲 · 2护卫 · 2斗士</text><rect x="428" y="170" width="344" height="348" rx="10" fill="#fff" stroke="#e4e7ec" stroke-width="1.5"/><rect x="428" y="170" width="344" height="8" rx="4" fill="#2563eb" stroke="none" stroke-width="1"/><text x="452" y="214" font-size="21" fill="#172033" font-weight="750" text-anchor="start" >中期 · 贾克斯2星</text><rect x="680" y="190" width="68" height="32" rx="16" fill="#2563eb" stroke="none" stroke-width="1"/><text x="714" y="212" font-size="15" fill="#fff" font-weight="650" text-anchor="middle" >1461分</text><text x="452" y="252" font-size="15" fill="#667085" font-weight="600" text-anchor="start" >核心装备</text><text x="452" y="281" font-size="16" fill="#172033" font-weight="600" text-anchor="start"><tspan x="452" dy="0">泰坦的坚决</tspan><tspan x="452" dy="23.2">水银</tspan><tspan x="452" dy="23.2">鬼索的狂暴之刃</tspan></text><text x="452" y="376" font-size="15" fill="#667085" font-weight="600" text-anchor="start" >棋盘 7 人</text><text x="452" y="405" font-size="15" fill="#172033" font-weight="500" text-anchor="start"><tspan x="452" dy="0">贾克斯 · 德莱文 · 孙悟空 · 安妮 · 拉</tspan><tspan x="452" dy="22.5">克丝 · 波比 · 璐璐</tspan></text><text x="452" y="491" font-size="14" fill="#2563eb" font-weight="650" text-anchor="start" >3小天才 · 3战斗机甲 · 2灵能使</text><rect x="804" y="170" width="344" height="348" rx="10" fill="#fff" stroke="#e4e7ec" stroke-width="1.5"/><rect x="804" y="170" width="344" height="8" rx="4" fill="#7c3aed" stroke="none" stroke-width="1"/><text x="828" y="214" font-size="21" fill="#172033" font-weight="750" text-anchor="start" >后期 · 蕾欧娜2星</text><rect x="1056" y="190" width="68" height="32" rx="16" fill="#7c3aed" stroke="none" stroke-width="1"/><text x="1090" y="212" font-size="15" fill="#fff" font-weight="650" text-anchor="middle" >2634分</text><text x="828" y="252" font-size="15" fill="#667085" font-weight="600" text-anchor="start" >核心装备</text><text x="828" y="281" font-size="16" fill="#172033" font-weight="600" text-anchor="start"><tspan x="828" dy="0">朔极之矛</tspan><tspan x="828" dy="23.2">水银</tspan><tspan x="828" dy="23.2">鬼索的狂暴之刃</tspan></text><text x="828" y="376" font-size="15" fill="#667085" font-weight="600" text-anchor="start" >棋盘 9 人</text><text x="828" y="405" font-size="15" fill="#172033" font-weight="500" text-anchor="start"><tspan x="828" dy="0">蕾欧娜 · 德莱文 · 孙悟空 · 瑟提 · 贾</tspan><tspan x="828" dy="22.5">克斯 · 佛耶戈 · 泰隆</tspan></text><text x="828" y="491" font-size="14" fill="#7c3aed" font-weight="650" text-anchor="start" >5战斗机甲 · 3混沌战士 · 2灵能使</text><line x1="396" y1="340" x2="420" y2="340" stroke="#d97706" stroke-width="4" /><path d="M414 332 L426 340 L414 348" fill="none" stroke="#d97706" stroke-width="4"/><rect x="382" y="535" width="82" height="32" rx="16" fill="#d97706" stroke="none" stroke-width="1"/><text x="423" y="557" font-size="15" fill="#fff" font-weight="650" text-anchor="middle" >保留4人</text><line x1="772" y1="340" x2="796" y2="340" stroke="#d97706" stroke-width="4" /><path d="M790 332 L802 340 L790 348" fill="none" stroke="#d97706" stroke-width="4"/><rect x="758" y="535" width="82" height="32" rx="16" fill="#d97706" stroke="none" stroke-width="1"/><text x="799" y="557" font-size="15" fill="#fff" font-weight="650" text-anchor="middle" >保留3人</text><rect x="52" y="574" width="1096" height="48" rx="7" fill="#fff7ed" stroke="#fed7aa" stroke-width="1"/><text x="600" y="604" font-size="17" fill="#d97706" font-weight="700" text-anchor="middle" >路径总分 100 · 平滑 94 · 风险 29 · 装备继承 3件 → 2件</text>
  <line x1="52" y1="642" x2="1148" y2="642" stroke="#e4e7ec" stroke-width="1" />
  <text x="52" y="666" font-size="13" fill="#98a2b3" font-weight="400" text-anchor="start" >数据：transition_results.json；路线“战斗机甲：贾克斯 → 蕾欧娜”</text>
  <text x="1148" y="666" font-size="13" fill="#98a2b3" font-weight="600" text-anchor="end" >JCC S18 Research Lab</text>
</svg>