<svg xmlns="http://www.w3.org/2000/svg" width="1200" height="680" viewBox="0 0 1200 680" role="img" aria-label="阵容推导 03 · 全队求解器 Pareto 前沿">
  <rect width="1200" height="680" fill="#ffffff"/>
  <style>text{font-family:Inter,-apple-system,BlinkMacSystemFont,"Segoe UI","PingFang SC","Microsoft YaHei",Arial,sans-serif;letter-spacing:0}</style>
  <text x="52" y="58" font-size="30" fill="#172033" font-weight="750" text-anchor="start" >阵容推导 03 · 全队求解器 Pareto 前沿</text>
  <text x="52" y="88" font-size="16" fill="#667085" font-weight="400" text-anchor="start" >联合优化主C输出、前排EHP与全队结构，避免只追逐单个最高DPS</text>
  <line x1="52" y1="108" x2="1148" y2="108" stroke="#e4e7ec" stroke-width="1" />
  <line x1="104" y1="155" x2="104" y2="575" stroke="#e4e7ec" stroke-width="1" /><text x="104" y="602" font-size="13" fill="#667085" font-weight="500" text-anchor="middle" >10k EHP</text><line x1="354.00000000000006" y1="155" x2="354.00000000000006" y2="575" stroke="#e4e7ec" stroke-width="1" /><text x="354.00000000000006" y="602" font-size="13" fill="#667085" font-weight="500" text-anchor="middle" >13k EHP</text><line x1="604" y1="155" x2="604" y2="575" stroke="#e4e7ec" stroke-width="1" /><text x="604" y="602" font-size="13" fill="#667085" font-weight="500" text-anchor="middle" >17k EHP</text><line x1="854" y1="155" x2="854" y2="575" stroke="#e4e7ec" stroke-width="1" /><text x="854" y="602" font-size="13" fill="#667085" font-weight="500" text-anchor="middle" >20k EHP</text><line x1="1104" y1="155" x2="1104" y2="575" stroke="#e4e7ec" stroke-width="1" /><text x="1104" y="602" font-size="13" fill="#667085" font-weight="500" text-anchor="middle" >23k EHP</text><line x1="104" y1="575" x2="1104" y2="575" stroke="#e4e7ec" stroke-width="1" /><text x="88" y="579" font-size="13" fill="#667085" font-weight="500" text-anchor="end" >0</text><line x1="104" y1="470" x2="1104" y2="470" stroke="#e4e7ec" stroke-width="1" /><text x="88" y="474" font-size="13" fill="#667085" font-weight="500" text-anchor="end" >337</text><line x1="104" y1="365" x2="1104" y2="365" stroke="#e4e7ec" stroke-width="1" /><text x="88" y="369" font-size="13" fill="#667085" font-weight="500" text-anchor="end" >674</text><line x1="104" y1="260" x2="1104" y2="260" stroke="#e4e7ec" stroke-width="1" /><text x="88" y="264" font-size="13" fill="#667085" font-weight="500" text-anchor="end" >1012</text><line x1="104" y1="155" x2="1104" y2="155" stroke="#e4e7ec" stroke-width="1" /><text x="88" y="159" font-size="13" fill="#667085" font-weight="500" text-anchor="end" >1349</text><text x="34" y="375" font-size="14" fill="#667085" font-weight="600" text-anchor="middle" transform="rotate(-90 34 375)">主C DPS</text><polyline points="558.9633206425851,186.1111111111111 572.0409818305629,285.43501467840946 1018.6934100968829,326.8459211813896" fill="none" stroke="#d97706" stroke-width="3" stroke-linecap="round" stroke-linejoin="round"/><circle cx="558.9633206425851" cy="186.1111111111111" r="8.004545454545454" fill="#d97706" stroke="#fff" stroke-width="2"/><circle cx="448.69310056644065" cy="213.199448447647" r="7.3136363636363635" fill="#93c5fd" stroke="#fff" stroke-width="2"/><circle cx="1018.6934100968829" cy="326.8459211813896" r="7.013636363636364" fill="#d97706" stroke="#fff" stroke-width="2"/><circle cx="572.0409818305629" cy="289.17133706965575" r="6.509090909090909" fill="#93c5fd" stroke="#fff" stroke-width="2"/><circle cx="572.0409818305629" cy="285.43501467840946" r="6.25" fill="#d97706" stroke="#fff" stroke-width="2"/><circle cx="572.0409818305629" cy="294.4644604572547" r="6.109090909090909" fill="#93c5fd" stroke="#fff" stroke-width="2"/><circle cx="664.7453493051041" cy="326.8459211813896" r="6" fill="#93c5fd" stroke="#fff" stroke-width="2"/><circle cx="191.93759866282846" cy="265.8193221243662" r="6" fill="#93c5fd" stroke="#fff" stroke-width="2"/><circle cx="749.5566905005106" cy="379.7771550573792" r="6" fill="#93c5fd" stroke="#fff" stroke-width="2"/><circle cx="586.7436778407156" cy="362.6523440975002" r="6" fill="#93c5fd" stroke="#fff" stroke-width="2"/><circle cx="586.7436778407156" cy="364.20914509385284" r="6" fill="#93c5fd" stroke="#fff" stroke-width="2"/><circle cx="310.6425232921657" cy="335.8753669602349" r="6" fill="#93c5fd" stroke="#fff" stroke-width="2"/><circle cx="644.3163401120499" cy="426.48118494795835" r="6" fill="#93c5fd" stroke="#fff" stroke-width="2"/><circle cx="427.18073482527" cy="381.33395605373187" r="6" fill="#93c5fd" stroke="#fff" stroke-width="2"/><circle cx="486.1462840870399" cy="404.99733119829193" r="6" fill="#93c5fd" stroke="#fff" stroke-width="2"/><circle cx="637.8935834339306" cy="425.85846454941736" r="6" fill="#93c5fd" stroke="#fff" stroke-width="2"/><circle cx="715.1214287925217" cy="433.01974913263945" r="6" fill="#93c5fd" stroke="#fff" stroke-width="2"/><circle cx="771.9202649580585" cy="515.2188417400587" r="6" fill="#93c5fd" stroke="#fff" stroke-width="2"/><circle cx="783.0633608815426" cy="508.3689173561071" r="6" fill="#93c5fd" stroke="#fff" stroke-width="2"/><circle cx="698.9484631813539" cy="486.2623432078997" r="6" fill="#93c5fd" stroke="#fff" stroke-width="2"/><circle cx="624.1194787507351" cy="485.0169024108176" r="6" fill="#93c5fd" stroke="#fff" stroke-width="2"/><circle cx="456.04444857151697" cy="509.3029979539187" r="6" fill="#93c5fd" stroke="#fff" stroke-width="2"/><circle cx="602.9166434518834" cy="545.1094208700293" r="6" fill="#93c5fd" stroke="#fff" stroke-width="2"/><text x="546.9633206425851" y="173.1111111111111" font-size="13" fill="#172033" font-weight="650" text-anchor="end" >模型·蕾欧娜·3混沌战士…</text><text x="460.69310056644065" y="200.199448447647" font-size="13" fill="#172033" font-weight="650" text-anchor="start" >模型·贾克斯·3混沌战士…</text><text x="1006.6934100968829" y="313.8459211813896" font-size="13" fill="#172033" font-weight="650" text-anchor="end" >秘卫斗士贾克斯</text><text x="584.0409818305629" y="276.17133706965575" font-size="13" fill="#172033" font-weight="650" text-anchor="start" >模型·佐伊·3黑客2淘气…</text><text x="560.0409818305629" y="272.43501467840946" font-size="13" fill="#172033" font-weight="650" text-anchor="end" >模型·凯尔·2灵能使4决…</text><text x="584.0409818305629" y="281.4644604572547" font-size="13" fill="#172033" font-weight="650" text-anchor="start" >模型·薇恩·2灵能使2决…</text><text x="652.7453493051041" y="313.8459211813896" font-size="13" fill="#172033" font-weight="650" text-anchor="end" >黑客贾克斯</text><rect x="865" y="126" width="176" height="32" rx="16" fill="#d97706" stroke="none" stroke-width="1"/><text x="953" y="148" font-size="15" fill="#fff" font-weight="650" text-anchor="middle" >橙色 = Pareto前沿</text><rect x="1049" y="126" width="99" height="32" rx="16" fill="#2563eb" stroke="none" stroke-width="1"/><text x="1098.5" y="148" font-size="15" fill="#fff" font-weight="650" text-anchor="middle" >23套求解阵容</text><rect x="104" y="604" width="1000" height="28" rx="5" fill="#fff7ed" stroke="#fed7aa" stroke-width="1"/><text x="604" y="624" font-size="14" fill="#d97706" font-weight="650" text-anchor="middle" >Pareto 前沿：不存在另一套阵容同时拥有更高主C输出与更厚前排</text>
  <line x1="52" y1="642" x2="1148" y2="642" stroke="#e4e7ec" stroke-width="1" />
  <text x="52" y="666" font-size="13" fill="#98a2b3" font-weight="400" text-anchor="start" >数据：meta_discovery_results.json stable；气泡大小映射全队总分</text>
  <text x="1148" y="666" font-size="13" fill="#98a2b3" font-weight="600" text-anchor="end" >JCC S18 Research Lab</text>
</svg>