<svg xmlns="http://www.w3.org/2000/svg" width="1200" height="680" viewBox="0 0 1200 680" role="img" aria-label="模型验算 03 · 至尊机甲持有者反事实">
  <rect width="1200" height="680" fill="#ffffff"/>
  <style>text{font-family:Inter,-apple-system,BlinkMacSystemFont,"Segoe UI","PingFang SC","Microsoft YaHei",Arial,sans-serif;letter-spacing:0}</style>
  <text x="52" y="58" font-size="30" fill="#172033" font-weight="750" text-anchor="start" >模型验算 03 · 至尊机甲持有者反事实</text>
  <text x="52" y="88" font-size="16" fill="#667085" font-weight="400" text-anchor="start" >固定阶段棋盘与主C装备，仅替换至尊持有者，逐人重跑战斗模型</text>
  <line x1="52" y1="108" x2="1148" y2="108" stroke="#e4e7ec" stroke-width="1" />
  <text x="52" y="150" font-size="19" fill="#0891b2" font-weight="750" text-anchor="start" >前期 · 3机甲</text><text x="52" y="201" font-size="15" fill="#172033" font-weight="650" text-anchor="start" >1. 德莱文</text><rect x="146" y="184" width="210" height="22" rx="5" fill="#eef2f6" stroke="none" stroke-width="1"/><rect x="146" y="184" width="76.42458100558659" height="22" rx="5" fill="#0891b2" stroke="none" stroke-width="1"/><text x="366" y="201" font-size="14" fill="#0891b2" font-weight="700" text-anchor="start" >456</text><text x="52" y="264" font-size="15" fill="#172033" font-weight="650" text-anchor="start" >2. 贾克斯</text><rect x="146" y="247" width="210" height="22" rx="5" fill="#eef2f6" stroke="none" stroke-width="1"/><rect x="146" y="247" width="64.18994413407822" height="22" rx="5" fill="#0891b2" stroke="none" stroke-width="1"/><text x="366" y="264" font-size="14" fill="#0891b2" font-weight="700" text-anchor="start" >383</text><text x="52" y="327" font-size="15" fill="#172033" font-weight="650" text-anchor="start" >3. 孙悟空</text><rect x="146" y="310" width="210" height="22" rx="5" fill="#eef2f6" stroke="none" stroke-width="1"/><rect x="146" y="310" width="60.33519553072626" height="22" rx="5" fill="#0891b2" stroke="none" stroke-width="1"/><text x="366" y="327" font-size="14" fill="#0891b2" font-weight="700" text-anchor="start" >360</text><rect x="52" y="522" width="330" height="68" rx="8" fill="#fff" stroke="#0891b2" stroke-width="1.5"/><text x="217" y="550" font-size="17" fill="#172033" font-weight="750" text-anchor="middle" >最优至尊：德莱文</text><text x="217" y="575" font-size="14" fill="#0891b2" font-weight="650" text-anchor="middle" >全队输出 456</text><text x="422" y="150" font-size="19" fill="#2563eb" font-weight="750" text-anchor="start" >中期 · 3机甲</text><text x="422" y="201" font-size="15" fill="#172033" font-weight="650" text-anchor="start" >1. 贾克斯</text><rect x="516" y="184" width="210" height="22" rx="5" fill="#eef2f6" stroke="none" stroke-width="1"/><rect x="516" y="184" width="100.05586592178771" height="22" rx="5" fill="#2563eb" stroke="none" stroke-width="1"/><text x="736" y="201" font-size="14" fill="#2563eb" font-weight="700" text-anchor="start" >597</text><text x="422" y="264" font-size="15" fill="#172033" font-weight="650" text-anchor="start" >2. 德莱文</text><rect x="516" y="247" width="210" height="22" rx="5" fill="#eef2f6" stroke="none" stroke-width="1"/><rect x="516" y="247" width="86.14525139664805" height="22" rx="5" fill="#2563eb" stroke="none" stroke-width="1"/><text x="736" y="264" font-size="14" fill="#2563eb" font-weight="700" text-anchor="start" >514</text><text x="422" y="327" font-size="15" fill="#172033" font-weight="650" text-anchor="start" >3. 孙悟空</text><rect x="516" y="310" width="210" height="22" rx="5" fill="#eef2f6" stroke="none" stroke-width="1"/><rect x="516" y="310" width="82.79329608938548" height="22" rx="5" fill="#2563eb" stroke="none" stroke-width="1"/><text x="736" y="327" font-size="14" fill="#2563eb" font-weight="700" text-anchor="start" >494</text><rect x="422" y="522" width="330" height="68" rx="8" fill="#fff" stroke="#2563eb" stroke-width="1.5"/><text x="587" y="550" font-size="17" fill="#172033" font-weight="750" text-anchor="middle" >最优至尊：贾克斯</text><text x="587" y="575" font-size="14" fill="#2563eb" font-weight="650" text-anchor="middle" >全队输出 597</text><text x="792" y="150" font-size="19" fill="#7c3aed" font-weight="750" text-anchor="start" >后期 · 5机甲</text><text x="792" y="201" font-size="15" fill="#172033" font-weight="650" text-anchor="start" >1. 蕾欧娜</text><rect x="886" y="184" width="210" height="22" rx="5" fill="#eef2f6" stroke="none" stroke-width="1"/><rect x="886" y="184" width="210" height="22" rx="5" fill="#7c3aed" stroke="none" stroke-width="1"/><text x="1106" y="201" font-size="14" fill="#7c3aed" font-weight="700" text-anchor="start" >1253</text><text x="792" y="264" font-size="15" fill="#172033" font-weight="650" text-anchor="start" >2. 贾克斯</text><rect x="886" y="247" width="210" height="22" rx="5" fill="#eef2f6" stroke="none" stroke-width="1"/><rect x="886" y="247" width="180.83798882681563" height="22" rx="5" fill="#7c3aed" stroke="none" stroke-width="1"/><text x="1106" y="264" font-size="14" fill="#7c3aed" font-weight="700" text-anchor="start" >1079</text><text x="792" y="327" font-size="15" fill="#172033" font-weight="650" text-anchor="start" >3. 德莱文</text><rect x="886" y="310" width="210" height="22" rx="5" fill="#eef2f6" stroke="none" stroke-width="1"/><rect x="886" y="310" width="180.16759776536313" height="22" rx="5" fill="#7c3aed" stroke="none" stroke-width="1"/><text x="1106" y="327" font-size="14" fill="#7c3aed" font-weight="700" text-anchor="start" >1075</text><text x="792" y="390" font-size="15" fill="#172033" font-weight="650" text-anchor="start" >4. 瑟提</text><rect x="886" y="373" width="210" height="22" rx="5" fill="#eef2f6" stroke="none" stroke-width="1"/><rect x="886" y="373" width="176.64804469273744" height="22" rx="5" fill="#7c3aed" stroke="none" stroke-width="1"/><text x="1106" y="390" font-size="14" fill="#7c3aed" font-weight="700" text-anchor="start" >1054</text><text x="792" y="453" font-size="15" fill="#172033" font-weight="650" text-anchor="start" >5. 孙悟空</text><rect x="886" y="436" width="210" height="22" rx="5" fill="#eef2f6" stroke="none" stroke-width="1"/><rect x="886" y="436" width="175.9776536312849" height="22" rx="5" fill="#7c3aed" stroke="none" stroke-width="1"/><text x="1106" y="453" font-size="14" fill="#7c3aed" font-weight="700" text-anchor="start" >1050</text><rect x="792" y="522" width="330" height="68" rx="8" fill="#fff" stroke="#7c3aed" stroke-width="1.5"/><text x="957" y="550" font-size="17" fill="#172033" font-weight="750" text-anchor="middle" >最优至尊：蕾欧娜</text><text x="957" y="575" font-size="14" fill="#7c3aed" font-weight="650" text-anchor="middle" >全队输出 1253</text><line x1="360" y1="470" x2="420" y2="470" stroke="#d97706" stroke-width="3" /><line x1="730" y1="470" x2="790" y2="470" stroke="#d97706" stroke-width="3" /><rect x="336" y="452" width="54" height="32" rx="16" fill="#d97706" stroke="none" stroke-width="1"/><text x="363" y="474" font-size="15" fill="#fff" font-weight="650" text-anchor="middle" >转交</text><rect x="706" y="452" width="54" height="32" rx="16" fill="#d97706" stroke="none" stroke-width="1"/><text x="733" y="474" font-size="15" fill="#fff" font-weight="650" text-anchor="middle" >转交</text><rect x="52" y="608" width="1096" height="24" rx="5" fill="#fff7ed" stroke="#fed7aa" stroke-width="1"/><text x="600" y="626" font-size="14" fill="#d97706" font-weight="650" text-anchor="middle" >对照结论：至尊给瑟提类前排并非零收益，但终局比蕾欧娜2星少199全队输出</text>
  <line x1="52" y1="642" x2="1148" y2="642" stroke="#e4e7ec" stroke-width="1" />
  <text x="52" y="666" font-size="13" fill="#98a2b3" font-weight="400" text-anchor="start" >数据：mecha_prime_results.json；3机甲+60/60，5机甲至尊+110/110</text>
  <text x="1148" y="666" font-size="13" fill="#98a2b3" font-weight="600" text-anchor="end" >JCC S18 Research Lab</text>
</svg>